<mxfile host="Electron" agent="Mozilla/5.0 (Windows NT 10.0; Win64; x64) AppleWebKit/537.36 (KHTML, like Gecko) draw.io/25.0.2 Chrome/128.0.6613.186 Electron/32.2.5 Safari/537.36" version="25.0.2">
  <diagram id="e32d1f3d-d176-02dc-17b0-21117a74af9b" name="Page-1">
    <mxGraphModel dx="1434" dy="854" grid="1" gridSize="10" guides="1" tooltips="1" connect="1" arrows="1" fold="1" page="1" pageScale="1" pageWidth="1169" pageHeight="1654" background="#ffffff" math="0" shadow="0">
      <root>
        <mxCell id="0" />
        <mxCell id="1" parent="0" />
        <mxCell id="2" value="&lt;span&gt;Búsqueda de las partes contrarias&lt;/span&gt;" style="rounded=0;whiteSpace=wrap;html=1;fillColor=none;" parent="1" vertex="1">
          <mxGeometry x="324" y="172" width="120" height="60" as="geometry" />
        </mxCell>
        <mxCell id="3" value="" style="endArrow=classic;html=1;entryX=0.5;entryY=0;exitX=0.5;exitY=1;" parent="1" source="2" target="4" edge="1">
          <mxGeometry width="50" height="50" relative="1" as="geometry">
            <mxPoint x="394" y="232" as="sourcePoint" />
            <mxPoint x="394" y="302" as="targetPoint" />
          </mxGeometry>
        </mxCell>
        <mxCell id="4" value="&lt;span&gt;Consulta de disponibilidades&lt;/span&gt;" style="rounded=0;whiteSpace=wrap;html=1;fillColor=none;" parent="1" vertex="1">
          <mxGeometry x="324" y="282" width="120" height="60" as="geometry" />
        </mxCell>
        <mxCell id="5" value="Todas las partes contrarias tienen fecha libre?" style="rhombus;whiteSpace=wrap;html=1;fillColor=none;" parent="1" vertex="1">
          <mxGeometry x="326" y="382" width="116" height="116" as="geometry" />
        </mxCell>
        <mxCell id="6" value="" style="endArrow=classic;html=1;exitX=0.5;exitY=1;entryX=0.5;entryY=0;" parent="1" source="4" target="5" edge="1">
          <mxGeometry width="50" height="50" relative="1" as="geometry">
            <mxPoint x="450" y="402" as="sourcePoint" />
            <mxPoint x="500" y="352" as="targetPoint" />
          </mxGeometry>
        </mxCell>
        <mxCell id="7" value="" style="endArrow=classic;html=1;exitX=1;exitY=0.5;entryX=1;entryY=0.5;" parent="1" source="5" target="2" edge="1">
          <mxGeometry width="50" height="50" relative="1" as="geometry">
            <mxPoint x="480" y="492" as="sourcePoint" />
            <mxPoint x="470" y="230" as="targetPoint" />
            <Array as="points">
              <mxPoint x="490" y="440" />
              <mxPoint x="490" y="202" />
            </Array>
          </mxGeometry>
        </mxCell>
        <mxCell id="8" value="NO" style="text;html=1;strokeColor=none;fillColor=none;align=center;verticalAlign=middle;whiteSpace=wrap;rounded=0;" parent="1" vertex="1">
          <mxGeometry x="452" y="416" width="40" height="20" as="geometry" />
        </mxCell>
        <mxCell id="15" value="SI" style="text;html=1;strokeColor=none;fillColor=none;align=center;verticalAlign=middle;whiteSpace=wrap;rounded=0;" parent="1" vertex="1">
          <mxGeometry x="377" y="505" width="40" height="20" as="geometry" />
        </mxCell>
        <mxCell id="16" value="" style="endArrow=classic;html=1;exitX=0.5;exitY=1;entryX=0.5;entryY=0;" parent="1" source="5" target="18" edge="1">
          <mxGeometry width="50" height="50" relative="1" as="geometry">
            <mxPoint x="290" y="592" as="sourcePoint" />
            <mxPoint x="384" y="542" as="targetPoint" />
          </mxGeometry>
        </mxCell>
        <mxCell id="18" value="&lt;span&gt;Consulta de condiciones decontratación&lt;/span&gt;" style="rounded=0;whiteSpace=wrap;html=1;fillColor=none;" parent="1" vertex="1">
          <mxGeometry x="324" y="532" width="120" height="60" as="geometry" />
        </mxCell>
        <mxCell id="20" value="ESTÁS DE ACUERDO" style="rhombus;whiteSpace=wrap;html=1;fillColor=none;" parent="1" vertex="1">
          <mxGeometry x="326" y="633" width="116" height="116" as="geometry" />
        </mxCell>
        <mxCell id="21" value="" style="endArrow=classic;html=1;entryX=0.5;entryY=0;exitX=0.5;exitY=1;" parent="1" source="18" target="20" edge="1">
          <mxGeometry width="50" height="50" relative="1" as="geometry">
            <mxPoint x="420" y="612" as="sourcePoint" />
            <mxPoint x="500" y="603" as="targetPoint" />
          </mxGeometry>
        </mxCell>
        <mxCell id="22" value="" style="endArrow=classic;html=1;exitX=0;exitY=0.5;entryX=0;entryY=0.5;" parent="1" source="20" target="2" edge="1">
          <mxGeometry width="50" height="50" relative="1" as="geometry">
            <mxPoint x="480" y="743" as="sourcePoint" />
            <mxPoint x="444" y="453" as="targetPoint" />
            <Array as="points">
              <mxPoint x="280" y="691" />
              <mxPoint x="280" y="202" />
            </Array>
          </mxGeometry>
        </mxCell>
        <mxCell id="23" value="NO" style="text;html=1;strokeColor=none;fillColor=none;align=center;verticalAlign=middle;whiteSpace=wrap;rounded=0;" parent="1" vertex="1">
          <mxGeometry x="277" y="667" width="40" height="20" as="geometry" />
        </mxCell>
        <mxCell id="24" value="SI" style="text;html=1;strokeColor=none;fillColor=none;align=center;verticalAlign=middle;whiteSpace=wrap;rounded=0;" parent="1" vertex="1">
          <mxGeometry x="377" y="756" width="40" height="20" as="geometry" />
        </mxCell>
        <mxCell id="25" value="" style="endArrow=classic;html=1;exitX=0.5;exitY=1;entryX=0.5;entryY=0;" parent="1" source="20" target="26" edge="1">
          <mxGeometry width="50" height="50" relative="1" as="geometry">
            <mxPoint x="290" y="843" as="sourcePoint" />
            <mxPoint x="384" y="783" as="targetPoint" />
          </mxGeometry>
        </mxCell>
        <mxCell id="26" value="Envío de solicitudes" style="rounded=0;whiteSpace=wrap;html=1;fillColor=none;" parent="1" vertex="1">
          <mxGeometry x="325" y="792" width="120" height="60" as="geometry" />
        </mxCell>
        <mxCell id="29" value="Contratación de un evento" style="ellipse;whiteSpace=wrap;html=1;fillColor=none;" parent="1" vertex="1">
          <mxGeometry x="324" y="38" width="120" height="80" as="geometry" />
        </mxCell>
        <mxCell id="30" value="" style="endArrow=classic;html=1;entryX=0.5;entryY=0;exitX=0.5;exitY=1;" parent="1" source="29" target="2" edge="1">
          <mxGeometry width="50" height="50" relative="1" as="geometry">
            <mxPoint x="360" y="162" as="sourcePoint" />
            <mxPoint x="410" y="112" as="targetPoint" />
          </mxGeometry>
        </mxCell>
        <mxCell id="39" value="" style="edgeStyle=orthogonalEdgeStyle;rounded=0;html=1;jettySize=auto;orthogonalLoop=1;" parent="1" source="31" target="38" edge="1">
          <mxGeometry relative="1" as="geometry" />
        </mxCell>
        <mxCell id="31" value="Han aceptado todos?" style="rhombus;whiteSpace=wrap;html=1;fillColor=none;" parent="1" vertex="1">
          <mxGeometry x="317" y="902" width="135" height="130" as="geometry" />
        </mxCell>
        <mxCell id="44" value="" style="edgeStyle=orthogonalEdgeStyle;rounded=0;html=1;jettySize=auto;orthogonalLoop=1;entryX=0.5;entryY=1;exitX=0.5;exitY=0;" parent="1" source="38" target="43" edge="1">
          <mxGeometry relative="1" as="geometry">
            <mxPoint x="530" y="1062" as="targetPoint" />
            <Array as="points">
              <mxPoint x="589" y="900" />
              <mxPoint x="589" y="900" />
            </Array>
          </mxGeometry>
        </mxCell>
        <mxCell id="54" value="" style="edgeStyle=orthogonalEdgeStyle;rounded=0;html=1;jettySize=auto;orthogonalLoop=1;" parent="1" source="38" target="53" edge="1">
          <mxGeometry relative="1" as="geometry" />
        </mxCell>
        <mxCell id="38" value="Han rechazado todos?" style="rhombus;whiteSpace=wrap;html=1;fillColor=none;" parent="1" vertex="1">
          <mxGeometry x="532" y="912" width="114" height="110" as="geometry" />
        </mxCell>
        <mxCell id="57" value="" style="edgeStyle=orthogonalEdgeStyle;rounded=1;html=1;jettySize=auto;orthogonalLoop=1;entryX=1;entryY=0.5;exitX=0.5;exitY=1;" parent="1" source="53" target="36" edge="1">
          <mxGeometry relative="1" as="geometry">
            <mxPoint x="1230" y="990" as="sourcePoint" />
            <mxPoint x="814.1111111111111" y="1278.2222222222222" as="targetPoint" />
            <Array as="points">
              <mxPoint x="862" y="1060" />
              <mxPoint x="862" y="1260" />
            </Array>
          </mxGeometry>
        </mxCell>
        <mxCell id="53" value="Cancelamos Contratación" style="rhombus;whiteSpace=wrap;html=1;fillColor=none;" parent="1" vertex="1">
          <mxGeometry x="820" y="927" width="83" height="80" as="geometry" />
        </mxCell>
        <mxCell id="47" value="" style="edgeStyle=orthogonalEdgeStyle;rounded=0;html=1;jettySize=auto;orthogonalLoop=1;exitX=1;exitY=0.5;entryX=1;entryY=0.5;" parent="1" source="53" target="2" edge="1">
          <mxGeometry relative="1" as="geometry">
            <mxPoint x="1190" y="967" as="sourcePoint" />
            <mxPoint x="460" y="202" as="targetPoint" />
            <Array as="points">
              <mxPoint x="950" y="967" />
              <mxPoint x="950" y="203" />
            </Array>
          </mxGeometry>
        </mxCell>
        <mxCell id="59" value="" style="edgeStyle=orthogonalEdgeStyle;rounded=1;html=1;jettySize=auto;orthogonalLoop=1;entryX=0;entryY=0.5;exitX=1;exitY=0.5;" parent="1" source="43" target="53" edge="1">
          <mxGeometry relative="1" as="geometry">
            <mxPoint x="726" y="1117" as="targetPoint" />
            <Array as="points">
              <mxPoint x="730" y="811" />
              <mxPoint x="730" y="967" />
            </Array>
          </mxGeometry>
        </mxCell>
        <mxCell id="43" value="La Sala rechaza?" style="rhombus;whiteSpace=wrap;html=1;fillColor=none;" parent="1" vertex="1">
          <mxGeometry x="532" y="756" width="114" height="110" as="geometry" />
        </mxCell>
        <mxCell id="71" value="" style="edgeStyle=orthogonalEdgeStyle;rounded=1;html=1;jettySize=auto;orthogonalLoop=1;entryX=1;entryY=0.5;" parent="1" source="51" target="2" edge="1">
          <mxGeometry relative="1" as="geometry">
            <mxPoint x="500" y="220" as="targetPoint" />
            <Array as="points">
              <mxPoint x="690" y="657" />
              <mxPoint x="690" y="202" />
            </Array>
          </mxGeometry>
        </mxCell>
        <mxCell id="74" value="" style="edgeStyle=orthogonalEdgeStyle;rounded=1;html=1;jettySize=auto;orthogonalLoop=1;entryX=1;entryY=0.5;" parent="1" source="51" target="26" edge="1">
          <mxGeometry relative="1" as="geometry">
            <mxPoint x="490" y="820" as="targetPoint" />
            <Array as="points">
              <mxPoint x="488" y="657" />
              <mxPoint x="488" y="822" />
            </Array>
          </mxGeometry>
        </mxCell>
        <mxCell id="51" value="Buscamos otro Artista?" style="rhombus;whiteSpace=wrap;html=1;fillColor=none;" parent="1" vertex="1">
          <mxGeometry x="532" y="602" width="114" height="110" as="geometry" />
        </mxCell>
        <mxCell id="32" value="" style="endArrow=classic;html=1;exitX=0.5;exitY=1;entryX=0.5;entryY=0;" parent="1" source="26" target="31" edge="1">
          <mxGeometry width="50" height="50" relative="1" as="geometry">
            <mxPoint x="393.52631578947376" y="859.421052631579" as="sourcePoint" />
            <mxPoint x="394.57894736842104" y="901.5263157894738" as="targetPoint" />
          </mxGeometry>
        </mxCell>
        <mxCell id="33" value="SI" style="text;html=1;strokeColor=none;fillColor=none;align=center;verticalAlign=middle;whiteSpace=wrap;rounded=0;" parent="1" vertex="1">
          <mxGeometry x="377" y="1040" width="40" height="20" as="geometry" />
        </mxCell>
        <mxCell id="34" value="" style="endArrow=classic;html=1;entryX=0.5;entryY=0;" parent="1" target="35" edge="1">
          <mxGeometry width="50" height="50" relative="1" as="geometry">
            <mxPoint x="385" y="1032" as="sourcePoint" />
            <mxPoint x="385" y="1075" as="targetPoint" />
          </mxGeometry>
        </mxCell>
        <mxCell id="35" value="Envío a las partes hoja de ruta y rider" style="rounded=0;whiteSpace=wrap;html=1;fillColor=none;" parent="1" vertex="1">
          <mxGeometry x="325" y="1089" width="120" height="60" as="geometry" />
        </mxCell>
        <mxCell id="36" value="Contratación Completada" style="ellipse;whiteSpace=wrap;html=1;fillColor=none;" parent="1" vertex="1">
          <mxGeometry x="324" y="1220" width="120" height="80" as="geometry" />
        </mxCell>
        <mxCell id="37" value="" style="endArrow=classic;html=1;exitX=0.5;exitY=1;entryX=0.5;entryY=0;" parent="1" source="35" target="36" edge="1">
          <mxGeometry width="50" height="50" relative="1" as="geometry">
            <mxPoint x="280" y="1218" as="sourcePoint" />
            <mxPoint x="330" y="1168" as="targetPoint" />
          </mxGeometry>
        </mxCell>
        <mxCell id="42" value="NO" style="text;html=1;strokeColor=none;fillColor=none;align=center;verticalAlign=middle;whiteSpace=wrap;rounded=0;" parent="1" vertex="1">
          <mxGeometry x="468" y="947" width="40" height="20" as="geometry" />
        </mxCell>
        <mxCell id="45" value="NO" style="text;html=1;strokeColor=none;fillColor=none;align=center;verticalAlign=middle;whiteSpace=wrap;rounded=0;" parent="1" vertex="1">
          <mxGeometry x="585" y="884" width="40" height="20" as="geometry" />
        </mxCell>
        <mxCell id="48" value="NO" style="text;html=1;strokeColor=none;fillColor=none;align=center;verticalAlign=middle;whiteSpace=wrap;rounded=0;" parent="1" vertex="1">
          <mxGeometry x="900" y="947" width="40" height="20" as="geometry" />
        </mxCell>
        <mxCell id="55" value="SI" style="text;html=1;strokeColor=none;fillColor=none;align=center;verticalAlign=middle;whiteSpace=wrap;rounded=0;" parent="1" vertex="1">
          <mxGeometry x="644" y="947" width="40" height="20" as="geometry" />
        </mxCell>
        <mxCell id="60" value="SI" style="text;html=1;strokeColor=none;fillColor=none;align=center;verticalAlign=middle;whiteSpace=wrap;rounded=0;" parent="1" vertex="1">
          <mxGeometry x="644" y="791" width="40" height="20" as="geometry" />
        </mxCell>
        <mxCell id="61" value="NO" style="text;html=1;strokeColor=none;fillColor=none;align=center;verticalAlign=middle;whiteSpace=wrap;rounded=0;" parent="1" vertex="1">
          <mxGeometry x="585" y="730" width="40" height="20" as="geometry" />
        </mxCell>
        <mxCell id="64" value="SI" style="text;html=1;strokeColor=none;fillColor=none;align=center;verticalAlign=middle;whiteSpace=wrap;rounded=0;" parent="1" vertex="1">
          <mxGeometry x="644" y="637" width="40" height="20" as="geometry" />
        </mxCell>
        <mxCell id="68" value="" style="endArrow=classic;html=1;exitX=0.5;exitY=0;entryX=0.5;entryY=1;" parent="1" source="43" target="51" edge="1">
          <mxGeometry width="50" height="50" relative="1" as="geometry">
            <mxPoint x="640" y="770" as="sourcePoint" />
            <mxPoint x="690" y="720" as="targetPoint" />
          </mxGeometry>
        </mxCell>
        <mxCell id="75" value="NO" style="text;html=1;strokeColor=none;fillColor=none;align=center;verticalAlign=middle;whiteSpace=wrap;rounded=0;" parent="1" vertex="1">
          <mxGeometry x="492" y="637" width="40" height="20" as="geometry" />
        </mxCell>
        <mxCell id="76" value="SI" style="text;html=1;strokeColor=none;fillColor=none;align=center;verticalAlign=middle;whiteSpace=wrap;rounded=0;" parent="1" vertex="1">
          <mxGeometry x="856" y="1022" width="40" height="20" as="geometry" />
        </mxCell>
      </root>
    </mxGraphModel>
  </diagram>
</mxfile>
